# xmcd
#
# Track frame offsets:
#	150
#	22100
#	54404
#	81468
#	115479
#	118088
#	124163
#	174976
#	180185
#
# Disc length: 3724 seconds
#
# Revision: 1
# Processed by: cddbd v1.5.2PL0 Copyright (c) Steve Scherf et al.
# Submitted via: audiograbber 1.83.01
#
DISCID=750e8a09
DTITLE=Grateful Dead - 72-08-22 Berkeley Community Theatre, Berkeley CA
DYEAR=1900
DGENRE=
TTITLE0=El Paso
TTITLE1=Ramble On Rose
TTITLE2=Not Fade Away
TTITLE3=GDTRFB
TTITLE4=Hey Bo Diddley
TTITLE5=Not Fade Away
TTITLE6=Truckin'
TTITLE7=Drums
TTITLE8=The Other One
EXTD=
EXTT0=
EXTT1=
EXTT2=
EXTT3=
EXTT4=
EXTT5=
EXTT6=
EXTT7=
EXTT8=
PLAYORDER=
